#!OML:ASF C:\ViconDB\ViconDB\414\Spring2016\041811\Spring2016.ASF
:FULLY-SPECIFIED
:DEGREES
378
root 7.33949 17.8899 -42.3318 -179.073 -0.193394 -181.475
lowerback -5.34999 -3.09524 1.0171
upperback -2.36923 -4.34879 1.88183
thorax 0.628092 -2.23776 1.10801
lowerneck -9.71768 8.06426 6.80229
upperneck 42.6695 18.2255 1.88233
head 17.9098 10.8557 3.51446
rclavicle -2.85256e-014 -2.54444e-014
rhumerus -79.0411 30.9318 -110.588
rradius 92.6337
rwrist 31.2761
rhand -35.1829 2.18094
rfingers 7.12502
rthumb -8.32125 -27.6352
lclavicle -2.85256e-014 -2.54444e-014
lhumerus -101.221 -41.2377 139.336
lradius 73.5422
lwrist -11.7344
lhand -46.5051 2.24051
lfingers 7.12502
lthumb -19.2314 31.3096
rfemur 177.489 398.579 -512.786
rtibia 39.2027
rfoot -779.622 -58.9786
rtoes -30.3837
lfemur 3.94249 1.6984 -22.6047
ltibia 42.0408
lfoot 9.4652 -21.9411
ltoes -11.0512
379
root 7.36173 17.9276 -42.5264 -179.171 -0.342972 -180.733
lowerback -5.08098 -2.98436 1.40009
upperback -2.27334 -4.20949 1.88672
thorax 0.548428 -2.16804 0.921582
lowerneck -10.1605 8.11301 6.60214
upperneck 42.4728 17.9781 2.22047
head 17.8146 10.7256 3.64965
rclavicle 2.00773e-014 2.38542e-015
rhumerus -79.4985 31.4772 -111.144
rradius 92.485
rwrist 31.0339
rhand -35.3149 2.03408
rfingers 7.12502
rthumb -8.44869 -27.7769
lclavicle 2.00773e-014 2.38542e-015
lhumerus -100.978 -41.4978 138.884
lradius 73.7689
lwrist -11.9324
lhand -46.3489 2.02045
lfingers 7.12502
lthumb -19.0812 31.1045
rfemur 176.677 400.231 -511.995
rtibia 39.2483
rfoot -781.494 -58.296
rtoes -30.0335
lfemur 1.40698 2.36298 -21.0723
ltibia 46.1837
lfoot 11.1742 -21.8549
ltoes -10.9077
380
root 7.38184 17.9601 -42.7202 -179.173 -0.230847 -179.665
lowerback -4.9724 -2.69608 2.1419
upperback -2.1839 -3.86516 1.98805
thorax 0.536045 -2.00173 0.635309
lowerneck -10.4313 8.03807 6.47881
upperneck 42.2956 17.5579 2.61417
head 17.6883 10.5679 3.75341
rclavicle 4.55217e-014 -9.54166e-015
rhumerus -80.1187 31.9702 -111.75
rradius 92.2766
rwrist 30.5667
rhand -35.679 1.67305
rfingers 7.12502
rthumb -8.80005 -28.1235
lclavicle 4.55217e-014 -9.54166e-015
lhumerus -100.533 -41.8293 138.298
lradius 74.1691
lwrist -10.9379
lhand -45.5178 0.308442
lfingers 7.12502
lthumb -18.2818 29.4693
rfemur 176.022 401.878 -510.728
rtibia 39.2375
rfoot -783.671 -57.9316
rtoes -29.048
lfemur -1.23848 3.17464 -19.2313
ltibia 50.2488
lfoot 11.7543 -21.7171
ltoes -10.3925
381
root 7.41 17.9885 -42.9055 -179.311 -0.187043 -178.27
lowerback -4.69946 -2.42686 3.09092
upperback -2.02441 -3.55416 2.20463
thorax 0.505535 -1.85369 0.355152
lowerneck -10.7293 7.96131 6.23742
upperneck 42.09 17.0943 3.12106
head 17.5248 10.3869 3.91016
rclavicle -2.23633e-014 6.36111e-015
rhumerus -80.9247 32.67 -112.535
rradius 92.0992
rwrist 29.7563
rhand -36.115 1.32102
rfingers 7.12502
rthumb -9.22082 -28.4574
lclavicle -2.23633e-014 6.36111e-015
lhumerus -100.05 -42.164 137.798
lradius 74.0941
lwrist -11.9294
lhand -45.8148 0.766626
lfingers 7.12502
lthumb -18.5676 29.9005
rfemur 175.202 403.291 -509.335
rtibia 39.1489
rfoot -785.468 -57.2753
rtoes -28.4909
lfemur -3.86478 3.85613 -17.0038
ltibia 54.2272
lfoot 10.9772 -21.3408
ltoes -10.1443
382
root 7.44035 18.0071 -43.0929 -179.541 -0.109923 -177.846
lowerback -4.40573 -2.1943 3.15313
upperback -1.8412 -3.21609 2.02509
thorax 0.521192 -1.67521 0.161038
lowerneck -10.9359 7.86911 6.22537
upperneck 41.8874 16.5811 3.64479
head 17.3742 10.2307 4.0273
rclavicle 2.25124e-014 -2.98177e-014
rhumerus -81.8178 33.3362 -113.68
rradius 91.849
rwrist 28.6712
rhand -36.4463 0.845564
rfingers 7.12502
rthumb -9.54039 -28.9184
lclavicle 2.25124e-014 -2.98177e-014
lhumerus -99.7251 -42.5561 137.144
lradius 74.055
lwrist -13.5335
lhand -46.0747 1.55901
lfingers 7.12502
lthumb -18.8175 30.6688
rfemur 174.147 404.7 -509.207
rtibia 39.1425
rfoot -787.044 -56.6569
rtoes -27.7123
lfemur -6.30773 4.42656 -16.0251
ltibia 57.8305
lfoot 9.65039 -20.5577
ltoes -9.90602
383
root 7.46751 18.0205 -43.2775 -179.812 -0.0416227 -177.091
lowerback -4.09615 -1.93037 3.46907
upperback -1.61444 -2.86072 2.04574
thorax 0.573784 -1.49244 0.0291501
lowerneck -11.2403 7.75154 5.92688
upperneck 41.7289 16.0893 4.23373
head 17.2358 10.0497 4.23122
rclavicle 1.51076e-014 -7.55382e-015
rhumerus -82.5992 33.9655 -114.566
rradius 91.4923
rwrist 27.749
rhand -37.0199 0.25028
rfingers 7.12502
rthumb -10.0939 -29.4876
lclavicle 1.51076e-014 -7.55382e-015
lhumerus -99.0988 -43.0261 136.611
lradius 73.9824
lwrist -13.9519
lhand -46.1359 1.2099
lfingers 7.12502
lthumb -18.8764 30.314
rfemur 173.067 406.425 -508.702
rtibia 39.128
rfoot -789.048 -56.1177
rtoes -26.5245
lfemur -8.76371 5.08253 -14.6964
ltibia 61.1226
lfoot 8.3326 -19.6589
ltoes -10.0168
